<svg width="16" height="16" viewBox="0 0 24 24" fill="currentColor" aria-hidden="true"><path d="M12 .5C5.65.5.5 5.65.5 12c0 5.07 3.29 9.36 7.85 10.88.57.1.78-.25.78-.55v-1.93c-3.2.7-3.87-1.54-3.87-1.54-.52-1.32-1.27-1.67-1.27-1.67-1.04-.71.08-.7.08-.7 1.15.08 1.76 1.18 1.76 1.18 1.02 1.76 2.68 1.25 3.34.96.1-.74.4-1.25.73-1.54-2.55-.29-5.23-1.28-5.23-5.7 0-1.26.45-2.29 1.18-3.1-.12-.29-.51-1.46.11-3.04 0 0 .97-.31 3.18 1.18a11 11 0 0 1 5.79 0c2.2-1.49 3.17-1.18 3.17-1.18.63 1.58.24 2.75.12 3.04.73.81 1.18 1.84 1.18 3.1 0 4.43-2.69 5.4-5.26 5.69.41.35.78 1.05.78 2.12v3.14c0 .31.21.66.79.55C20.21 21.36 23.5 17.07 23.5 12 23.5 5.65 18.35.5 12 .5Z"/></svg>
